<svg width="28" height="28" viewBox="0 0 38 33" fill="none" xmlns="http://www.w3.org/2000/svg">
<path d="M26.8261 21.1758L30.7391 2.00192H37V1.23483H29.9565L29.1739 5.38951H1L4.13043 21.1758H26.8261ZM28.8629 6.30626L26.0435 20.3932H4.91304L2.17391 6.30626H28.8629Z" stroke-width="0.5"/>
<path d="M23.7821 31.7256C26.225 31.7256 28.2123 29.7382 28.2123 27.2954C28.2123 24.8525 26.1385 23.1324 23.6956 23.1324H7.09089C4.64807 23.1324 2.66064 24.8525 2.66064 27.2954C2.66064 29.7382 4.64803 31.3497 7.09089 31.3497C9.53374 31.3497 11.4129 29.7382 11.4129 27.2954C11.4129 24.8525 10.208 24.4279 9.99999 23.915H21.7391C20.9565 24.3063 19.3913 24.8525 19.3913 27.2954C19.3913 29.7382 21.3393 31.7256 23.7821 31.7256ZM10.7826 27.2954C10.7826 29.8931 8.43477 30.7607 7.09089 30.7607C5.30434 30.7607 3.34782 29.7845 3.34782 27.2954C3.34782 25.0889 4.91303 23.915 7.09089 23.915C9.26874 23.915 10.7826 24.6976 10.7826 27.2954ZM27.6087 27.2954C27.6087 28.2107 26.8261 30.9584 23.6956 30.9584C22.1304 30.9584 20.1739 30.1758 20.1739 27.2954C20.1739 24.939 22.8669 23.915 23.7821 23.915C26.8261 23.915 27.6087 26.3801 27.6087 27.2954Z" stroke-width="0.5"/>
</svg>
