<svg width="25" height="25" viewBox="0 0 36 34" fill="none" xmlns="http://www.w3.org/2000/svg">
<path d="M17.9737 1.00054C17.825 1.00558 17.6818 1.05649 17.5642 1.14605L1.27294 13.6421C1.12471 13.7557 1.02846 13.9226 1.00537 14.1059C0.98228 14.2893 1.03424 14.4742 1.14981 14.6199C1.26539 14.7656 1.43512 14.8602 1.62166 14.8829C1.8082 14.9056 1.99627 14.8545 2.1445 14.7409L3.12535 13.9889V32.2944C3.12537 32.4791 3.2 32.6562 3.33283 32.7867C3.46566 32.9173 3.64582 32.9907 3.83367 32.9907H13.6311C13.7076 33.0031 13.7857 33.0031 13.8621 32.9907H22.1309C22.2074 33.0031 22.2854 33.0031 22.3619 32.9907H32.1663C32.3541 32.9907 32.5343 32.9173 32.6671 32.7867C32.8 32.6562 32.8746 32.4791 32.8746 32.2944V13.9889L33.8555 14.7409C33.9289 14.7972 34.0128 14.8387 34.1025 14.863C34.1922 14.8874 34.2859 14.8942 34.3783 14.8829C34.4707 14.8717 34.5599 14.8427 34.6409 14.7976C34.7218 14.7524 34.793 14.6921 34.8502 14.6199C34.9074 14.5478 34.9496 14.4652 34.9744 14.377C34.9992 14.2889 35.0061 14.1967 34.9946 14.1059C34.9832 14.0151 34.9537 13.9274 34.9078 13.8479C34.8618 13.7683 34.8004 13.6984 34.727 13.6421L29.333 9.50532V4.44379H25.0831V6.24429L18.4358 1.14605C18.304 1.0456 18.1403 0.994068 17.9737 1.00054ZM18 2.57938L31.458 12.9023V31.5981H22.9582V18.3691H13.0418V31.5981H4.54198V12.9023L18 2.57938ZM26.4998 5.83633H27.9164V8.41876L26.4998 7.33085V5.83633ZM14.4584 19.7616H21.5416V31.5981H14.4584V19.7616Z" stroke-width="0.5"/>
</svg>
