<svg width="25" height="25" viewBox="0 0 34 34" fill="none" xmlns="http://www.w3.org/2000/svg">
<path d="M18.2303 0C11.2514 0 5.31414 4.89008 3.24253 11.6875L1.78211 8.85417C1.69173 8.67248 1.55336 8.52468 1.38499 8.42995C1.21662 8.33521 1.02603 8.29792 0.837992 8.32295C0.68169 8.34226 0.532285 8.40387 0.403349 8.5022C0.274412 8.60053 0.17003 8.73245 0.0996827 8.88599C0.0293357 9.03952 -0.00474641 9.20983 0.000531789 9.38139C0.00580998 9.55296 0.0502814 9.72036 0.129907 9.8684L2.72622 14.9233C2.84485 15.1567 3.04185 15.3308 3.27573 15.4089C3.50962 15.4869 3.76214 15.4629 3.98012 15.3419L8.59743 12.7661C8.71309 12.7083 8.81685 12.6255 8.90246 12.5228C8.98807 12.42 9.05378 12.2995 9.09563 12.1684C9.13748 12.0373 9.15462 11.8982 9.146 11.7597C9.13739 11.6212 9.10321 11.486 9.04552 11.3622C8.98782 11.2384 8.90779 11.1287 8.81025 11.0395C8.71271 10.9504 8.59966 10.8837 8.4779 10.8434C8.35613 10.8031 8.22816 10.7901 8.10167 10.8051C7.97518 10.8201 7.85278 10.8629 7.74183 10.9309L4.99799 12.4602C6.78368 6.43996 12.0209 2.06061 18.2303 2.06061C25.9172 2.06061 32.1118 8.74448 32.1118 17C32.1118 25.2555 25.9172 31.9394 18.2303 31.9394C11.6539 31.9394 6.16519 27.0205 4.71771 20.4451C4.70089 20.3021 4.65676 20.1645 4.58817 20.0413C4.51958 19.9181 4.42806 19.812 4.31953 19.7298C4.21099 19.6476 4.08786 19.5911 3.95809 19.5641C3.82831 19.5371 3.69479 19.5401 3.56615 19.573C3.43752 19.6058 3.31662 19.6677 3.21129 19.7547C3.10596 19.8417 3.01853 19.9519 2.95466 20.0781C2.89079 20.2043 2.8519 20.3438 2.8405 20.4874C2.8291 20.631 2.84545 20.7757 2.88849 20.912C4.53917 28.4104 10.7902 34 18.2303 34C26.9242 34 34 26.3841 34 17C34 7.61594 26.9242 0 18.2303 0ZM18.3188 7.71121C18.0842 7.73935 17.8677 7.86238 17.7121 8.05607C17.5564 8.24975 17.4729 8.50003 17.478 8.75758V17C17.4779 17.1546 17.5097 17.3071 17.571 17.4465C17.6323 17.5858 17.7215 17.7083 17.832 17.8049L22.5526 21.9261C22.6495 22.0107 22.7607 22.0736 22.8798 22.1113C22.9989 22.149 23.1237 22.1607 23.247 22.1457C23.3703 22.1308 23.4897 22.0895 23.5983 22.0242C23.707 21.9589 23.8028 21.8709 23.8803 21.7652C23.9578 21.6594 24.0154 21.5381 24.0499 21.4081C24.0845 21.2781 24.0952 21.1419 24.0815 21.0074C24.0678 20.8729 24.0299 20.7426 23.9701 20.624C23.9103 20.5054 23.8296 20.4009 23.7328 20.3163L19.3662 16.501V8.75758C19.3691 8.61091 19.3433 8.46526 19.2904 8.33037C19.2376 8.19547 19.159 8.07444 19.0598 7.97538C18.9606 7.87632 18.8433 7.80151 18.7155 7.75595C18.5877 7.71039 18.4525 7.69514 18.3188 7.71121Z"/>
</svg>
