<svg width="25" height="25" viewBox="0 0 32 36" fill="none" xmlns="http://www.w3.org/2000/svg">
<path d="M31 34.5455C31 34.7965 30.7965 35 30.5455 35C30.2944 35 30.0909 34.7965 30.0909 34.5455C30.0909 26.7633 23.7822 20.4546 16 20.4546C8.21781 20.4546 1.90909 26.7633 1.90909 34.5455C1.90909 34.7965 1.70558 35 1.45455 35C1.20351 35 1 34.7965 1 34.5455C1 26.2612 7.71573 19.5455 16 19.5455C24.2843 19.5455 31 26.2612 31 34.5455ZM16 18.6364C11.2303 18.6364 7.36364 14.7697 7.36364 10C7.36364 5.23028 11.2303 1.36365 16 1.36365C20.7697 1.36365 24.6364 5.23028 24.6364 10C24.6364 14.7697 20.7697 18.6364 16 18.6364ZM16 17.7273C20.2677 17.7273 23.7273 14.2677 23.7273 10C23.7273 5.73236 20.2677 2.27274 16 2.27274C11.7323 2.27274 8.27273 5.73236 8.27273 10C8.27273 14.2677 11.7323 17.7273 16 17.7273Z" stroke-width="0.8"/>
</svg>
